<svg width="17" height="16" viewBox="0 0 17 16" fill="none" xmlns="http://www.w3.org/2000/svg">
<path d="M16.875 14.875V16H0V14.875H1.125V9.8125C1.125 9.42578 1.19824 9.0625 1.34473 8.72266C1.49121 8.38281 1.69043 8.08691 1.94238 7.83496C2.19434 7.58301 2.49316 7.38086 2.83887 7.22852C3.18457 7.07617 3.55078 7 3.9375 7H7.875V3.90625C7.875 3.85352 7.89551 3.80957 7.93652 3.77441C7.97754 3.73926 8.03027 3.70996 8.09473 3.68652C8.15918 3.66309 8.22363 3.64844 8.28809 3.64258C8.35254 3.63672 8.40234 3.63086 8.4375 3.625C8.47266 3.625 8.52246 3.62793 8.58691 3.63379C8.65137 3.63965 8.71289 3.6543 8.77148 3.67773C8.83008 3.70117 8.88281 3.73047 8.92969 3.76562C8.97656 3.80078 9 3.84766 9 3.90625V7H12.9375C13.3242 7 13.6875 7.07324 14.0273 7.21973C14.3672 7.36621 14.6631 7.56836 14.915 7.82617C15.167 8.08398 15.3691 8.38281 15.5215 8.72266C15.6738 9.0625 15.75 9.42578 15.75 9.8125V14.875H16.875ZM3.9375 8.125C3.7207 8.125 3.51562 8.16309 3.32227 8.23926C3.12891 8.31543 2.95898 8.4209 2.8125 8.55566C2.66602 8.69043 2.54297 8.84863 2.44336 9.03027C2.34375 9.21191 2.28223 9.41113 2.25879 9.62793C2.47559 9.86816 2.72754 10.0527 3.01465 10.1816C3.30176 10.3105 3.60938 10.375 3.9375 10.375C4.32422 10.375 4.6582 10.2988 4.93945 10.1465C5.2207 9.99414 5.4873 9.77148 5.73926 9.47852C5.80371 9.4082 5.86816 9.35254 5.93262 9.31152C5.99707 9.27051 6.08203 9.25 6.1875 9.25C6.28711 9.25 6.36914 9.27051 6.43359 9.31152C6.49805 9.35254 6.56543 9.4082 6.63574 9.47852C6.88184 9.76562 7.14551 9.98535 7.42676 10.1377C7.70801 10.29 8.04492 10.3691 8.4375 10.375C8.82422 10.375 9.1582 10.2988 9.43945 10.1465C9.7207 9.99414 9.9873 9.77148 10.2393 9.47852C10.3037 9.4082 10.3682 9.35254 10.4326 9.31152C10.4971 9.27051 10.582 9.25 10.6875 9.25C10.7871 9.25 10.8691 9.27051 10.9336 9.31152C10.998 9.35254 11.0654 9.4082 11.1357 9.47852C11.3818 9.76562 11.6455 9.98535 11.9268 10.1377C12.208 10.29 12.5449 10.3691 12.9375 10.375C13.2598 10.375 13.5645 10.3105 13.8516 10.1816C14.1387 10.0527 14.3936 9.86816 14.6162 9.62793C14.5928 9.41699 14.5342 9.2207 14.4404 9.03906C14.3467 8.85742 14.2236 8.69629 14.0713 8.55566C13.9189 8.41504 13.7461 8.30957 13.5527 8.23926C13.3594 8.16895 13.1543 8.13086 12.9375 8.125H3.9375ZM2.25 14.875H14.625V11.0518C14.3438 11.1924 14.0713 11.3008 13.8076 11.377C13.5439 11.4531 13.2539 11.4941 12.9375 11.5C12.5156 11.5 12.1143 11.4297 11.7334 11.2891C11.3525 11.1484 11.0039 10.9346 10.6875 10.6475C10.3711 10.9287 10.0225 11.1396 9.6416 11.2803C9.26074 11.4209 8.85938 11.4941 8.4375 11.5C8.01562 11.5 7.61426 11.4297 7.2334 11.2891C6.85254 11.1484 6.50391 10.9346 6.1875 10.6475C5.87109 10.9287 5.52246 11.1396 5.1416 11.2803C4.76074 11.4209 4.35938 11.4941 3.9375 11.5C3.62109 11.5 3.33105 11.4619 3.06738 11.3857C2.80371 11.3096 2.53125 11.1982 2.25 11.0518V14.875ZM8.4375 2.5C8.28516 2.5 8.15332 2.44434 8.04199 2.33301C7.93066 2.22168 7.875 2.08984 7.875 1.9375C7.875 1.86719 7.89844 1.77637 7.94531 1.66504C7.99219 1.55371 8.04492 1.43652 8.10352 1.31348C8.16211 1.19043 8.22363 1.07324 8.28809 0.961914C8.35254 0.850586 8.40234 0.762695 8.4375 0.698242C8.47266 0.762695 8.51953 0.850586 8.57812 0.961914C8.63672 1.07324 8.69824 1.19043 8.7627 1.31348C8.82715 1.43652 8.88281 1.55371 8.92969 1.66504C8.97656 1.77637 9 1.86719 9 1.9375C9 2.08984 8.94434 2.22168 8.83301 2.33301C8.72168 2.44434 8.58984 2.5 8.4375 2.5Z" fill="#333333"/>
</svg>
