<svg width="18" height="18" viewBox="0 0 18 18" fill="none" xmlns="http://www.w3.org/2000/svg">
<path d="M1.80005 4.5002C1.80005 3.50608 2.60594 2.7002 3.60005 2.7002H9.90005C10.8942 2.7002 11.7 3.50608 11.7 4.5002V8.1002C11.7 9.09431 10.8942 9.9002 9.90005 9.9002H8.10005L5.40005 12.6002V9.9002H3.60005C2.60594 9.9002 1.80005 9.09431 1.80005 8.1002V4.5002Z" fill="#111827"/>
<path d="M13.5 6.3002V7.70019C13.5 9.90933 11.7092 11.7002 9.50005 11.7002H8.84563L7.2556 13.2902C7.50743 13.4242 7.79487 13.5002 8.10005 13.5002H9.90005L12.6 16.2002V13.5002H14.4C15.3942 13.5002 16.2 12.6943 16.2 11.7002V8.1002C16.2 7.10608 15.3942 6.3002 14.4 6.3002H13.5Z" fill="#111827"/>
</svg>
