<svg width="18" height="18" viewBox="0 0 18 18" fill="none" xmlns="http://www.w3.org/2000/svg">
<path fill-rule="evenodd" clip-rule="evenodd" d="M10.3403 2.85365C9.99923 1.44852 8.00087 1.44852 7.65975 2.85365C7.43939 3.76135 6.39945 4.1921 5.6018 3.70608C4.36701 2.95372 2.95396 4.36677 3.70633 5.60155C4.19235 6.39921 3.76159 7.43915 2.8539 7.65951C1.44877 8.00063 1.44877 9.99898 2.8539 10.3401C3.76159 10.5605 4.19235 11.6004 3.70633 12.3981C2.95396 13.6328 4.36701 15.0459 5.6018 14.2935C6.39945 13.8075 7.43939 14.2383 7.65975 15.146C8.00087 16.5511 9.99923 16.5511 10.3403 15.146C10.5607 14.2383 11.6006 13.8075 12.3983 14.2935C13.6331 15.0459 15.0461 13.6328 14.2938 12.3981C13.8077 11.6004 14.2385 10.5605 15.1462 10.3401C16.5513 9.99898 16.5513 8.00063 15.1462 7.65951C14.2385 7.43915 13.8077 6.39921 14.2938 5.60155C15.0461 4.36677 13.6331 2.95372 12.3983 3.70608C11.6006 4.19211 10.5607 3.76135 10.3403 2.85365ZM9.00005 11.6998C10.4912 11.6998 11.7 10.491 11.7 8.9998C11.7 7.50864 10.4912 6.2998 9.00005 6.2998C7.50888 6.2998 6.30005 7.50864 6.30005 8.9998C6.30005 10.491 7.50888 11.6998 9.00005 11.6998Z" fill="#111827"/>
</svg>
