<svg width="12" height="12" viewBox="0 0 12 12" fill="none" xmlns="http://www.w3.org/2000/svg">
<path d="M6.00001 7.2C6.66275 7.2 7.20001 6.66274 7.20001 6C7.20001 5.33726 6.66275 4.8 6.00001 4.8C5.33726 4.8 4.80001 5.33726 4.80001 6C4.80001 6.66274 5.33726 7.2 6.00001 7.2Z" fill="#333333"/>
<path fill-rule="evenodd" clip-rule="evenodd" d="M0.274658 6.00003C1.03921 3.56575 3.31339 1.8 5.99998 1.8C8.68656 1.8 10.9607 3.56573 11.7253 5.99998C10.9607 8.43426 8.68656 10.2 5.99997 10.2C3.31339 10.2 1.03922 8.43428 0.274658 6.00003ZM8.40001 6C8.40001 7.32549 7.32549 8.4 6.00001 8.4C4.67452 8.4 3.60001 7.32549 3.60001 6C3.60001 4.67452 4.67452 3.6 6.00001 3.6C7.32549 3.6 8.40001 4.67452 8.40001 6Z" fill="#333333"/>
</svg>
