<svg width="11" height="16" viewBox="0 0 11 16" fill="none" xmlns="http://www.w3.org/2000/svg">
<path d="M10.25 1.25L6.5 5M10.25 1.25H7.25M10.25 1.25V4.25M4.25 11V15.5M2 13.25H6.5M1.25 7.25C1.25 8.04565 1.56607 8.80871 2.12868 9.37132C2.69129 9.93393 3.45435 10.25 4.25 10.25C5.04565 10.25 5.80871 9.93393 6.37132 9.37132C6.93393 8.80871 7.25 8.04565 7.25 7.25C7.25 6.45435 6.93393 5.69129 6.37132 5.12868C5.80871 4.56607 5.04565 4.25 4.25 4.25C3.45435 4.25 2.69129 4.56607 2.12868 5.12868C1.56607 5.69129 1.25 6.45435 1.25 7.25Z" stroke="#333333" stroke-linecap="round" stroke-linejoin="round"/>
</svg>
