<svg width="52" height="52" viewBox="0 0 52 52" fill="none" xmlns="http://www.w3.org/2000/svg">
<g filter="url(#filter0_d_157_561)">
<circle cx="26" cy="26" r="22" fill="white"/>
</g>
<g clip-path="url(#clip0_157_561)">
<path d="M12.9188 20.6843C12.2844 22.2374 12 23.8124 12 25.9999C12 28.2531 12.2844 29.7843 13.0063 31.4249C13.5969 32.7812 13.2688 32.8906 16.3313 30.3968C18.1906 28.8874 18.3 28.7562 18.1031 28.2312C17.8406 27.5531 17.775 25.0593 17.9938 24.1187C18.1469 23.4406 18.0813 23.3531 15.8719 21.5374C14.6031 20.5093 13.5313 19.6562 13.4656 19.6562C13.4219 19.6562 13.1594 20.1156 12.9188 20.6843Z" fill="#ECC115"/>
<path d="M22.4344 12.35C20.2469 12.875 17.7531 14.3187 16.0469 16.0468C15.2156 16.9 14.2969 18.0156 14.0125 18.4968L13.5312 19.3937L15.8719 21.3406L18.2125 23.3093L18.7156 22.2812C20.6188 18.4531 25.4312 16.7906 29.4125 18.5406C29.9812 18.8031 30.4625 19 30.4844 19C30.6156 19 34.8594 15.4562 34.925 15.3031C35.1219 14.7781 31.6219 12.8968 29.4781 12.35C27.7281 11.9125 24.2063 11.9125 22.4344 12.35Z" fill="#EC4040"/>
<path d="M15.8937 30.9657C14.778 31.8844 13.8155 32.6719 13.7718 32.7157C13.5312 32.8907 14.6687 34.5094 16.0905 35.9313C17.8405 37.7032 20.203 39.0594 22.6093 39.6719C24.2718 40.0875 27.4655 40.0875 29.2812 39.65C30.7249 39.3219 33.3718 38.1407 34.2687 37.4188L34.7718 37.025L32.6499 35.2969C29.9374 33.0875 30.0687 33.1313 29.303 33.525C27.5312 34.4657 24.5999 34.3782 22.4124 33.35C21.1655 32.7813 19.1749 30.9 18.7812 29.9157C18.628 29.5657 18.3874 29.2813 18.2343 29.2813C18.0812 29.2813 17.0312 30.025 15.8937 30.9657Z" fill="#15C140"/>
<path d="M26.2188 26.2188V29.0625H29.9594H33.6781L33.1969 29.9375C32.7156 30.7688 31.425 32.1907 30.55 32.825C30.2 33.0875 30.4187 33.3063 32.5187 35.0125L34.8594 36.8938L35.45 36.4563C36.3469 35.8219 37.9656 33.6344 38.6875 32.0813C39.7156 29.8938 40.0219 28.2969 39.9563 25.7375L39.8906 23.4844L33.0656 23.4188L26.2188 23.375V26.2188Z" fill="#4096EC"/>
</g>
<defs>
<filter id="filter0_d_157_561" x="0" y="0" width="52" height="52" filterUnits="userSpaceOnUse" color-interpolation-filters="sRGB">
<feFlood flood-opacity="0" result="BackgroundImageFix"/>
<feColorMatrix in="SourceAlpha" type="matrix" values="0 0 0 0 0 0 0 0 0 0 0 0 0 0 0 0 0 0 127 0" result="hardAlpha"/>
<feOffset/>
<feGaussianBlur stdDeviation="2"/>
<feComposite in2="hardAlpha" operator="out"/>
<feColorMatrix type="matrix" values="0 0 0 0 0 0 0 0 0 0 0 0 0 0 0 0 0 0 0.1 0"/>
<feBlend mode="normal" in2="BackgroundImageFix" result="effect1_dropShadow_157_561"/>
<feBlend mode="normal" in="SourceGraphic" in2="effect1_dropShadow_157_561" result="shape"/>
</filter>
<clipPath id="clip0_157_561">
<rect width="28" height="28" fill="white" transform="translate(12 12)"/>
</clipPath>
</defs>
</svg>
