<svg width="148" height="24" viewBox="0 0 148 24" fill="none" xmlns="http://www.w3.org/2000/svg">
<g id="Runwey Text Logo">
<path id="Vector" d="M19.5358 6.58546C19.5358 -0.0979386 11.234 7.95926e-05 7.12023 7.95926e-05H0V0.161133C2.00427 0.385197 3.18578 1.8311 3.18578 3.30852V23.5163H7.12023V12.9468C7.97809 12.9468 8.98022 12.9468 10.0525 12.9153L18.3894 23.5163H22.8268L14.0962 12.6247C16.9934 11.949 19.5358 10.342 19.5358 6.58546ZM13.2734 10.9862C12.7002 11.3083 12.0217 11.5009 11.3393 11.5954C10.8753 11.6584 10.4074 11.6934 9.94336 11.6934H7.11632V1.12391H9.94336C10.731 1.12391 15.1334 1.47751 15.3089 6.58546C15.3089 7.13161 15.2738 7.70928 15.1646 8.22392C15.0554 8.64054 14.915 9.06066 14.7006 9.44576C14.5563 9.76786 14.3067 10.09 14.0572 10.3455C13.8076 10.6011 13.5581 10.7936 13.2695 10.9897L13.2734 10.9862Z" fill="#6611E0"/>
<path id="Vector_2" d="M44.831 15.933C44.831 21.8427 38.6778 22.5814 36.6033 22.5814C36.6033 22.5814 29.9471 22.998 29.9471 15.933V0H22.8269V0.161043C25.0105 0.707198 26.0127 1.89404 26.0127 3.27694V15.933C26.0127 24.4474 36.2446 23.9958 36.2446 23.9958C46.1567 23.9958 46.4414 17.3789 46.4414 15.933V0H44.831V15.933Z" fill="#6611E0"/>
<path id="Vector_3" d="M67.1197 16.7768L51.3117 2.02008C50.4772 1.34789 48.8785 0 46.4414 0V0.161053C49.0774 0.899763 49.3425 3.56051 49.3425 5.39153V23.4847H50.8438V6.7079L68.617 23.4847V0H67.1158V16.7768H67.1197Z" fill="#6611E0"/>
<path id="Vector_4" d="M94.2006 16.7383L87.7589 0L81.2821 16.9938L75.1991 1.96056V1.92905C74.6999 0.773723 73.4833 0 72.1225 0H68.6169V0.161053L69.4397 0.353604C69.8686 0.451632 70.2976 0.675693 70.6212 0.931266C70.9449 1.22185 71.2295 1.54044 71.3738 1.92555V1.95706L80.3189 23.9958L86.5462 7.64268L92.8787 23.9958L102.931 0H101.177L94.2006 16.7383Z" fill="#6611E0"/>
<path id="Vector_5" d="M102.931 0.164547C105.115 0.710702 106.117 1.89754 106.117 3.28043V23.5197H122.611V22.2978H110.051V11.9839H120.537V10.538H110.051V1.22184H122.611V0H102.931V0.161043V0.164547Z" fill="#6611E0"/>
<path id="Vector_6" d="M146.116 0L137.815 11.7248C137.815 11.7248 130.48 1.83102 130.445 1.79952C129.513 0.675697 128.047 0 126.51 0H122.611V0.161053L123.254 0.290588C123.754 0.420125 124.257 0.644185 124.686 0.899758C125.114 1.19034 125.508 1.54394 125.793 1.92905L134.629 13.7834V23.5162H138.563V13.3633L148.008 0H146.113H146.116Z" fill="#6611E0"/>
</g>
</svg>
