<svg width="20" height="20" viewBox="0 0 20 20" fill="none" xmlns="http://www.w3.org/2000/svg">
<path d="M18.9368 11.0732C19.3433 10.87 19.6001 10.4544 19.6001 9.99992C19.6001 9.54539 19.3433 9.12987 18.9368 8.9266L2.13675 0.526602C1.71111 0.313782 1.19993 0.372589 0.833736 0.676504C0.467541 0.980418 0.315536 1.47201 0.44627 1.92958L2.16055 7.92957C2.30774 8.44473 2.7786 8.7999 3.31438 8.7999L8.8001 8.7999C9.46284 8.7999 10.0001 9.33716 10.0001 9.9999C10.0001 10.6626 9.46284 11.1999 8.8001 11.1999L3.31439 11.1999C2.77861 11.1999 2.30775 11.5551 2.16056 12.0702L0.446269 18.0703C0.315536 18.5278 0.46754 19.0194 0.833736 19.3233C1.19993 19.6272 1.71111 19.6861 2.13675 19.4732L18.9368 11.0732Z" fill="#6611E0"/>
</svg>
