<svg width="145" height="76" viewBox="0 0 145 76" fill="none" xmlns="http://www.w3.org/2000/svg">
<path d="M17.7317 58.3955C17.7317 51.6405 10.1966 51.7396 6.46269 51.7396H0V51.9023C1.81918 52.1288 2.89158 53.5902 2.89158 55.0834V75.5075H6.46269V64.8249C7.24133 64.8249 8.15092 64.8249 9.12422 64.793L16.6912 75.5075H20.7188L12.7944 64.4993C15.4241 63.8164 17.7317 62.1922 17.7317 58.3955ZM12.0476 62.8433C11.5274 63.1688 10.9115 63.3635 10.2922 63.459C9.871 63.5227 9.44628 63.5581 9.02511 63.5581H6.45915V52.8754H9.02511C9.74004 52.8754 13.7359 53.2328 13.8951 58.3955C13.8951 58.9475 13.8633 59.5313 13.7642 60.0515C13.6651 60.4725 13.5377 60.8971 13.343 61.2864C13.2121 61.6119 12.9855 61.9375 12.759 62.1958C12.5325 62.4541 12.306 62.6487 12.0441 62.8468L12.0476 62.8433Z" fill="white"/>
<path d="M40.7225 67.8467C40.7225 73.8197 35.1376 74.5663 33.2547 74.5663C33.2547 74.5663 27.2132 74.9874 27.2132 67.8467V51.7431H20.7505V51.9059C22.7325 52.4579 23.6421 53.6574 23.6421 55.0551V67.8467C23.6421 76.4523 32.9291 75.9958 32.9291 75.9958C41.9259 75.9958 42.1842 69.3081 42.1842 67.8467V51.7431H40.7225V67.8467Z" fill="white"/>
<path d="M62.9313 68.7313L48.5831 53.8167C47.8257 53.1373 46.3746 51.775 44.1626 51.775V51.9377C46.5551 52.6843 46.7958 55.3736 46.7958 57.2242V75.511H48.1584V58.5547L64.2904 75.511V51.775H62.9278V68.7313H62.9313Z" fill="white"/>
<path d="M90.9662 68.657L85.1193 51.7396L79.2406 68.9153L73.7194 53.7211V53.6893C73.2664 52.5216 72.1621 51.7396 70.9269 51.7396H67.7451V51.9023L68.4919 52.0969C68.8812 52.196 69.2705 52.4225 69.5643 52.6808C69.8581 52.9745 70.1164 53.2965 70.2474 53.6857V53.7176L78.3664 75.9923L84.0186 59.464L89.7664 75.9923L98.8906 51.7396H97.2979L90.9662 68.657Z" fill="white"/>
<path d="M101.485 51.9023C103.467 52.4543 104.376 53.6539 104.376 55.0516V75.5075H119.348V74.2726H107.948V63.8482H117.465V62.3868H107.948V52.9709H119.348V51.736H101.485V51.8988V51.9023Z" fill="white"/>
<path d="M143.283 51.7396L135.748 63.5899C135.748 63.5899 129.091 53.5902 129.059 53.5583C128.213 52.4225 126.882 51.7396 125.488 51.7396H121.949V51.9023L122.533 52.0333C122.986 52.1642 123.442 52.3906 123.832 52.6489C124.221 52.9426 124.578 53.3 124.837 53.6893L132.857 65.6705V75.5075H136.428V65.2459L145 51.7396H143.28H143.283Z" fill="white"/>
<path d="M121.531 31.2518H23.4723L14.9922 39.7335H130.011L121.531 31.2518Z" fill="white"/>
<path d="M90.2686 0H54.7345L29.1067 25.6186H115.893L90.2686 0Z" fill="white"/>
</svg>
