<svg width="18" height="18" viewBox="0 0 18 18" fill="none" xmlns="http://www.w3.org/2000/svg">
<path fill-rule="evenodd" clip-rule="evenodd" d="M16.2 8.9998C16.2 12.9763 12.9765 16.1998 9.00005 16.1998C5.0236 16.1998 1.80005 12.9763 1.80005 8.9998C1.80005 5.02335 5.0236 1.7998 9.00005 1.7998C12.9765 1.7998 16.2 5.02335 16.2 8.9998ZM14.4 8.9998C14.4 9.89316 14.1831 10.7358 13.7991 11.4781L12.4269 10.1059C12.5393 9.75742 12.6 9.38571 12.6 8.9998C12.6 8.70403 12.5644 8.41659 12.4971 8.14155L13.9036 6.73504C14.2223 7.4238 14.4 8.19104 14.4 8.9998ZM9.75116 12.5213L11.1741 13.9443C10.509 14.2372 9.7735 14.3998 9.00005 14.3998C8.19128 14.3998 7.42405 14.222 6.73529 13.9034L8.14179 12.4969C8.41683 12.5641 8.70428 12.5998 9.00005 12.5998C9.25763 12.5998 9.5089 12.5728 9.75116 12.5213ZM5.54231 10.0052C5.4497 9.6861 5.40005 9.34875 5.40005 8.9998C5.40005 8.70108 5.43643 8.41085 5.50502 8.1333L5.43407 8.20425L4.05555 6.82572C3.76266 7.49089 3.60005 8.22636 3.60005 8.9998C3.60005 9.85828 3.80037 10.67 4.15683 11.3907L5.54231 10.0052ZM6.5218 4.2008C7.26401 3.81674 8.1067 3.5998 9.00005 3.5998C9.85852 3.5998 10.6702 3.80013 11.3909 4.15658L10.0054 5.54207C9.68634 5.44945 9.34899 5.3998 9.00005 5.3998C8.61415 5.3998 8.24243 5.46052 7.89393 5.57293L6.5218 4.2008ZM10.8 8.9998C10.8 9.99392 9.99416 10.7998 9.00005 10.7998C8.00594 10.7998 7.20005 9.99392 7.20005 8.9998C7.20005 8.00569 8.00594 7.1998 9.00005 7.1998C9.99416 7.1998 10.8 8.00569 10.8 8.9998Z" fill="#333333"/>
</svg>
